<svg xmlns="http://www.w3.org/2000/svg" version="1.1" xmlns:xlink="http://www.w3.org/1999/xlink" xmlns:svgjs="http://svgjs.dev/svgjs" width="1500" height="1126" viewBox="0 0 1500 1126"><g transform="matrix(1,0,0,1,0.2938274140625481,0.4558704453440896)"><svg viewBox="0 0 329 247" data-background-color="#ffffff" preserveAspectRatio="xMidYMid meet" height="1126" width="1500" xmlns="http://www.w3.org/2000/svg" xmlns:xlink="http://www.w3.org/1999/xlink"><g id="tight-bounds" transform="matrix(1,0,0,1,-0.06444614615105593,-0.09999999999999432)"><svg viewBox="0 0 329.1288922923021 247.2" height="247.2" width="329.1288922923021"><g><svg viewBox="0 0 395.52 297.0646038366251" height="247.2" width="329.1288922923021"><g><svg viewBox="0 0 395.52 297.0646038366251" height="297.0646038366251" width="395.52"><g id="textblocktransform"><svg viewBox="0 0 395.52 297.0646038366251" height="297.0646038366251" width="395.52" id="textblock"><g><svg viewBox="0 0 395.52 193.16982591876211" height="193.16982591876211" width="395.52"><g transform="matrix(1,0,0,1,0,0)"><svg width="395.52" viewBox="3 -39.65 103.39 50.5" height="193.16982591876211" data-palette-color="#d31616"><path d="M9.35 0L3 0 3-34.55 19.7-34.55 19-29.8 9.35-29.8 9.35-19.25 17.75-19.25 17.75-14.5 9.35-14.5 9.35 0ZM23-26.45L29.15-26.45 29.15 0 23 0 23-26.45ZM26.05-39.65Q27.7-39.65 28.72-38.6 29.75-37.55 29.75-35.9L29.75-35.9Q29.75-34.3 28.72-33.25 27.7-32.2 26.05-32.2L26.05-32.2Q24.4-32.2 23.37-33.25 22.35-34.3 22.35-35.9L22.35-35.9Q22.35-37.55 23.37-38.6 24.4-39.65 26.05-39.65L26.05-39.65ZM52.8-29.85L54.34-25.1Q53.3-24.6 51.82-24.4 50.34-24.2 48.15-24.2L48.15-24.2Q50.25-23.2 51.27-21.53 52.3-19.85 52.3-17.4L52.3-17.4Q52.3-13.4 49.84-10.95 47.4-8.5 43.2-8.5L43.2-8.5Q41.95-8.5 40.65-8.9L40.65-8.9Q39.75-8.15 39.75-6.85L39.75-6.85Q39.75-5.85 40.3-5.35 40.84-4.85 42.34-4.85L42.34-4.85 45.15-4.85Q49.15-4.85 51.5-2.78 53.84-0.7 53.84 2.5L53.84 2.5Q53.84 6.3 50.92 8.58 48 10.85 42.59 10.85L42.59 10.85Q36.9 10.85 34.62 8.75 32.34 6.65 32.34 2.6L32.34 2.6 37.8 2.6Q37.8 4.75 38.8 5.65 39.8 6.55 42.65 6.55L42.65 6.55Q45.4 6.55 46.55 5.6 47.7 4.65 47.7 2.9L47.7 2.9Q47.7 1.2 46.75 0.4 45.8-0.4 43.8-0.4L43.8-0.4 41.9-0.4Q38.09-0.4 36.34-1.75 34.59-3.1 34.59-5.45L34.59-5.45Q34.59-6.8 35.32-8.03 36.05-9.25 37.3-10.2L37.3-10.2Q35.25-11.5 34.3-13.3 33.34-15.1 33.34-17.7L33.34-17.7Q33.34-22.05 35.95-24.58 38.55-27.1 42.95-27.1L42.95-27.1Q46.2-27.1 48.32-27.8 50.45-28.5 52.8-29.85L52.8-29.85ZM42.95-23Q41.2-23 40.3-21.75 39.4-20.5 39.4-17.8L39.4-17.8Q39.4-15.25 40.3-13.88 41.2-12.5 42.9-12.5L42.9-12.5Q44.65-12.5 45.5-13.73 46.34-14.95 46.34-17.85L46.34-17.85Q46.34-20.55 45.52-21.78 44.7-23 42.95-23L42.95-23ZM62.69 0.75Q59.99 0.75 58.42-0.93 56.84-2.6 56.84-5.4L56.84-5.4 56.84-37.05 62.99-37.7 62.99-5.65Q62.99-5 63.29-4.6 63.59-4.2 64.19-4.2L64.19-4.2Q64.54-4.2 64.87-4.3 65.19-4.4 65.29-4.4L65.29-4.4 66.49-0.2Q64.79 0.75 62.69 0.75L62.69 0.75ZM88.39-13.85Q88.39-13.4 88.24-11.3L88.24-11.3 74.59-11.3Q74.79-7.2 76.02-5.58 77.24-3.95 79.49-3.95L79.49-3.95Q81.04-3.95 82.29-4.48 83.54-5 84.99-6.15L84.99-6.15 87.54-2.65Q84.04 0.75 79.14 0.75L79.14 0.75Q73.94 0.75 71.17-2.85 68.39-6.45 68.39-13L68.39-13Q68.39-19.55 71.04-23.35 73.69-27.15 78.54-27.15L78.54-27.15Q83.19-27.15 85.79-23.78 88.39-20.4 88.39-13.85L88.39-13.85ZM82.39-15.3L82.39-15.65Q82.39-19.4 81.49-21.13 80.59-22.85 78.59-22.85L78.59-22.85Q76.74-22.85 75.77-21.18 74.79-19.5 74.59-15.3L74.59-15.3 82.39-15.3ZM104.34-27.1Q105.49-27.1 106.39-26.75L106.39-26.75 105.39-20.85Q104.39-21.1 103.54-21.1L103.54-21.1Q101.64-21.1 100.54-19.45 99.44-17.8 98.84-14.55L98.84-14.55 98.84 0 92.69 0 92.69-26.45 98.04-26.45 98.49-21.85Q100.34-27.1 104.34-27.1L104.34-27.1Z" opacity="1" transform="matrix(1,0,0,1,0,0)" fill="#d31616" class="wordmark-text-0" data-fill-palette-color="primary" id="text-0"></path></svg></g></svg></g><g transform="matrix(1,0,0,1,0,238.7725857423598)"><svg viewBox="0 0 395.52 58.292018094265295" height="58.292018094265295" width="395.52"><g transform="matrix(1,0,0,1,0,0)"><svg width="395.52" viewBox="-0.1 -39.65 344.51000000000005 50.5" height="58.292018094265295" data-palette-color="#f6eaea"><path d="M24.95 0L18.5 0 16.8-8.1 7.9-8.1 6.25 0-0.1 0 8.6-34.55 16.3-34.55 24.95 0ZM12.35-29.7L8.9-12.9 15.85-12.9 12.35-29.7ZM47.25-33.05Q45.85-33.05 45.17-32.3 44.5-31.55 44.5-30L44.5-30 44.5-26.45 49.55-26.45 48.85-22 44.5-22 44.5 0 38.35 0 38.35-22 35.05-22 35.05-26.45 38.35-26.45 38.35-29.8Q38.35-33.4 40.45-35.55 42.55-37.7 46.45-37.7L46.45-37.7Q49.5-37.7 52.35-36.2L52.35-36.2 50.65-32.2Q48.9-33.05 47.25-33.05L47.25-33.05ZM52.34-26.45L58.49-26.45 58.49 0 52.34 0 52.34-26.45ZM55.39-39.65Q57.04-39.65 58.07-38.6 59.09-37.55 59.09-35.9L59.09-35.9Q59.09-34.3 58.07-33.25 57.04-32.2 55.39-32.2L55.39-32.2Q53.74-32.2 52.72-33.25 51.69-34.3 51.69-35.9L51.69-35.9Q51.69-37.55 52.72-38.6 53.74-39.65 55.39-39.65L55.39-39.65ZM82.14-29.85L83.69-25.1Q82.64-24.6 81.17-24.4 79.69-24.2 77.49-24.2L77.49-24.2Q79.59-23.2 80.62-21.53 81.64-19.85 81.64-17.4L81.64-17.4Q81.64-13.4 79.19-10.95 76.74-8.5 72.54-8.5L72.54-8.5Q71.29-8.5 69.99-8.9L69.99-8.9Q69.09-8.15 69.09-6.85L69.09-6.85Q69.09-5.85 69.64-5.35 70.19-4.85 71.69-4.85L71.69-4.85 74.49-4.85Q78.49-4.85 80.84-2.78 83.19-0.7 83.19 2.5L83.19 2.5Q83.19 6.3 80.27 8.58 77.34 10.85 71.94 10.85L71.94 10.85Q66.24 10.85 63.97 8.75 61.69 6.65 61.69 2.6L61.69 2.6 67.14 2.6Q67.14 4.75 68.14 5.65 69.14 6.55 71.99 6.55L71.99 6.55Q74.74 6.55 75.89 5.6 77.04 4.65 77.04 2.9L77.04 2.9Q77.04 1.2 76.09 0.4 75.14-0.4 73.14-0.4L73.14-0.4 71.24-0.4Q67.44-0.4 65.69-1.75 63.94-3.1 63.94-5.45L63.94-5.45Q63.94-6.8 64.67-8.03 65.39-9.25 66.64-10.2L66.64-10.2Q64.59-11.5 63.64-13.3 62.69-15.1 62.69-17.7L62.69-17.7Q62.69-22.05 65.29-24.58 67.89-27.1 72.29-27.1L72.29-27.1Q75.54-27.1 77.67-27.8 79.79-28.5 82.14-29.85L82.14-29.85ZM72.29-23Q70.54-23 69.64-21.75 68.74-20.5 68.74-17.8L68.74-17.8Q68.74-15.25 69.64-13.88 70.54-12.5 72.24-12.5L72.24-12.5Q73.99-12.5 74.84-13.73 75.69-14.95 75.69-17.85L75.69-17.85Q75.69-20.55 74.87-21.78 74.04-23 72.29-23L72.29-23ZM110.09-27.15Q112.74-27.15 114.34-25.1 115.94-23.05 115.94-19.6L115.94-19.6 115.94 0 109.89 0 109.89-18.95Q109.89-20.85 109.39-21.68 108.89-22.5 107.94-22.5L107.94-22.5Q105.99-22.5 104.19-18.8L104.19-18.8 104.19 0 98.19 0 98.19-18.95Q98.19-22.5 96.29-22.5L96.29-22.5Q94.24-22.5 92.49-18.8L92.49-18.8 92.49 0 86.44 0 86.44-26.45 91.79-26.45 92.19-23.05Q94.79-27.15 98.44-27.15L98.44-27.15Q100.29-27.15 101.64-26 102.99-24.85 103.69-22.75L103.69-22.75Q106.34-27.15 110.09-27.15L110.09-27.15ZM138.34-6.4Q138.34-5.1 138.69-4.48 139.04-3.85 139.84-3.45L139.84-3.45 138.59 0.65Q136.53 0.4 135.31-0.45 134.09-1.3 133.49-3.05L133.49-3.05Q131.19 0.75 127.04 0.75L127.04 0.75Q123.74 0.75 121.79-1.48 119.84-3.7 119.84-7.4L119.84-7.4Q119.84-11.7 122.51-13.95 125.19-16.2 130.28-16.2L130.28-16.2 132.34-16.2 132.34-18.05Q132.34-20.55 131.46-21.58 130.59-22.6 128.64-22.6L128.64-22.6Q126.29-22.6 122.79-21.3L122.79-21.3 121.39-25.3Q123.39-26.2 125.54-26.68 127.69-27.15 129.64-27.15L129.64-27.15Q138.34-27.15 138.34-18.35L138.34-18.35 138.34-6.4ZM128.69-3.7Q131.09-3.7 132.34-7L132.34-7 132.34-12.55 130.89-12.55Q128.34-12.55 127.16-11.4 125.99-10.25 125.99-7.85L125.99-7.85Q125.99-5.8 126.69-4.75 127.39-3.7 128.69-3.7L128.69-3.7ZM161.33-27.15Q166.03-27.15 169.28-24.05L169.28-24.05 166.93-20.7Q165.53-21.7 164.28-22.2 163.03-22.7 161.73-22.7L161.73-22.7Q160.28-22.7 159.46-21.93 158.63-21.15 158.63-19.8L158.63-19.8Q158.63-18.45 159.56-17.63 160.48-16.8 163.28-15.7L163.28-15.7Q166.73-14.35 168.38-12.5 170.03-10.65 170.03-7.55L170.03-7.55Q170.03-3.7 167.33-1.48 164.63 0.75 160.48 0.75L160.48 0.75Q157.78 0.75 155.51-0.23 153.23-1.2 151.53-2.95L151.53-2.95 154.53-6.25Q157.33-3.8 160.23-3.8L160.23-3.8Q161.88-3.8 162.83-4.67 163.78-5.55 163.78-7.1L163.78-7.1Q163.78-8.25 163.38-8.97 162.98-9.7 161.98-10.33 160.98-10.95 158.98-11.7L158.98-11.7Q155.53-13.05 154.06-14.85 152.58-16.65 152.58-19.45L152.58-19.45Q152.58-22.8 154.96-24.98 157.33-27.15 161.33-27.15L161.33-27.15ZM192.03-26.45L192.03 0 186.68 0 186.38-3.35Q185.13-1.3 183.58-0.28 182.03 0.75 179.98 0.75L179.98 0.75Q177.08 0.75 175.4-1.3 173.73-3.35 173.73-6.65L173.73-6.65 173.73-26.45 179.88-26.45 179.88-7Q179.88-3.9 181.98-3.9L181.98-3.9Q183.18-3.9 184.13-4.83 185.08-5.75 185.88-7.45L185.88-7.45 185.88-26.45 192.03-26.45ZM209.88-27.15Q213.73-27.15 215.78-23.65 217.83-20.15 217.83-13.25L217.83-13.25Q217.83-6.75 215.53-3 213.23 0.75 209.23 0.75L209.23 0.75Q207.48 0.75 206.03-0.13 204.58-1 203.53-2.55L203.53-2.55 203.18 0 197.73 0 197.73-37 203.88-37.65 203.88-23.6Q204.93-25.3 206.45-26.23 207.98-27.15 209.88-27.15L209.88-27.15ZM207.58-3.9Q209.43-3.9 210.45-6 211.48-8.1 211.48-13.25L211.48-13.25Q211.48-18.6 210.55-20.58 209.63-22.55 207.93-22.55L207.93-22.55Q206.78-22.55 205.73-21.6 204.68-20.65 203.88-19.1L203.88-19.1 203.88-6.7Q204.53-5.45 205.5-4.67 206.48-3.9 207.58-3.9L207.58-3.9ZM229.77-27.15Q234.47-27.15 237.72-24.05L237.72-24.05 235.37-20.7Q233.97-21.7 232.72-22.2 231.47-22.7 230.17-22.7L230.17-22.7Q228.72-22.7 227.9-21.93 227.07-21.15 227.07-19.8L227.07-19.8Q227.07-18.45 228-17.63 228.92-16.8 231.72-15.7L231.72-15.7Q235.17-14.35 236.82-12.5 238.47-10.65 238.47-7.55L238.47-7.55Q238.47-3.7 235.77-1.48 233.07 0.75 228.92 0.75L228.92 0.75Q226.22 0.75 223.95-0.23 221.67-1.2 219.97-2.95L219.97-2.95 222.97-6.25Q225.77-3.8 228.67-3.8L228.67-3.8Q230.32-3.8 231.27-4.67 232.22-5.55 232.22-7.1L232.22-7.1Q232.22-8.25 231.82-8.97 231.42-9.7 230.42-10.33 229.42-10.95 227.42-11.7L227.42-11.7Q223.97-13.05 222.5-14.85 221.02-16.65 221.02-19.45L221.02-19.45Q221.02-22.8 223.4-24.98 225.77-27.15 229.77-27.15L229.77-27.15ZM253.47-5L255.62-1.2Q253.17 0.75 249.87 0.75L249.87 0.75Q246.42 0.75 244.62-1.23 242.82-3.2 242.82-6.6L242.82-6.6 242.82-22 239.72-22 239.72-26.45 242.82-26.45 242.82-32.3 248.97-33.05 248.97-26.45 253.97-26.45 253.37-22 248.97-22 248.97-6.6Q248.97-4.2 251.02-4.2L251.02-4.2Q251.67-4.2 252.17-4.38 252.67-4.55 253.47-5L253.47-5ZM258.17-26.45L264.32-26.45 264.32 0 258.17 0 258.17-26.45ZM261.22-39.65Q262.87-39.65 263.89-38.6 264.92-37.55 264.92-35.9L264.92-35.9Q264.92-34.3 263.89-33.25 262.87-32.2 261.22-32.2L261.22-32.2Q259.57-32.2 258.54-33.25 257.52-34.3 257.52-35.9L257.52-35.9Q257.52-37.55 258.54-38.6 259.57-39.65 261.22-39.65L261.22-39.65ZM281.17-5L283.32-1.2Q280.87 0.75 277.57 0.75L277.57 0.75Q274.12 0.75 272.32-1.23 270.52-3.2 270.52-6.6L270.52-6.6 270.52-22 267.42-22 267.42-26.45 270.52-26.45 270.52-32.3 276.67-33.05 276.67-26.45 281.67-26.45 281.07-22 276.67-22 276.67-6.6Q276.67-4.2 278.72-4.2L278.72-4.2Q279.37-4.2 279.87-4.38 280.37-4.55 281.17-5L281.17-5ZM304.01-26.45L304.01 0 298.66 0 298.36-3.35Q297.11-1.3 295.56-0.28 294.01 0.75 291.96 0.75L291.96 0.75Q289.06 0.75 287.39-1.3 285.71-3.35 285.71-6.65L285.71-6.65 285.71-26.45 291.86-26.45 291.86-7Q291.86-3.9 293.96-3.9L293.96-3.9Q295.16-3.9 296.11-4.83 297.06-5.75 297.86-7.45L297.86-7.45 297.86-26.45 304.01-26.45ZM320.86-5L323.01-1.2Q320.56 0.75 317.26 0.75L317.26 0.75Q313.81 0.75 312.01-1.23 310.21-3.2 310.21-6.6L310.21-6.6 310.21-22 307.11-22 307.11-26.45 310.21-26.45 310.21-32.3 316.36-33.05 316.36-26.45 321.36-26.45 320.76-22 316.36-22 316.36-6.6Q316.36-4.2 318.41-4.2L318.41-4.2Q319.06-4.2 319.56-4.38 320.06-4.55 320.86-5L320.86-5ZM344.41-13.85Q344.41-13.4 344.26-11.3L344.26-11.3 330.61-11.3Q330.81-7.2 332.03-5.58 333.26-3.95 335.51-3.95L335.51-3.95Q337.06-3.95 338.31-4.48 339.56-5 341.01-6.15L341.01-6.15 343.56-2.65Q340.06 0.75 335.16 0.75L335.16 0.75Q329.96 0.75 327.18-2.85 324.41-6.45 324.41-13L324.41-13Q324.41-19.55 327.06-23.35 329.71-27.15 334.56-27.15L334.56-27.15Q339.21-27.15 341.81-23.78 344.41-20.4 344.41-13.85L344.41-13.85ZM338.41-15.3L338.41-15.65Q338.41-19.4 337.51-21.13 336.61-22.85 334.61-22.85L334.61-22.85Q332.76-22.85 331.78-21.18 330.81-19.5 330.61-15.3L330.61-15.3 338.41-15.3Z" opacity="1" transform="matrix(1,0,0,1,0,0)" fill="#f6eaea" class="slogan-text-1" data-fill-palette-color="secondary" id="text-1"></path></svg></g></svg></g></svg></g></svg></g><g></g></svg></g><defs></defs></svg><rect width="329.1288922923021" height="247.2" fill="none" stroke="none" visibility="hidden"></rect></g></svg></g></svg>